<?xml version="1.0" encoding="UTF-8"?>
<svg version="1.1" xmlns="http://www.w3.org/2000/svg" width="500" height="500">
<path d="M0 0 C165 0 330 0 500 0 C500 165 500 330 500 500 C335 500 170 500 0 500 C0 335 0 170 0 0 Z " fill="#000000" transform="translate(0,0)"/>
<path d="M0 0 C7.26 0 14.52 0 22 0 C22 5.61 22 11.22 22 17 C19.36 17 16.72 17 14 17 C14.66 18.98 15.32 20.96 16 23 C17.98 23 19.96 23 22 23 C21.979375 23.70382813 21.95875 24.40765625 21.9375 25.1328125 C22.19740015 37.57553201 28.90417211 46.21222342 36 56 C36.02469081 51.6217488 36.04285557 47.24353433 36.05493164 42.86523438 C36.05996514 41.37531834 36.06679242 39.88540726 36.07543945 38.39550781 C36.08754805 36.25584696 36.09323807 34.11625132 36.09765625 31.9765625 C36.10289307 30.68830566 36.10812988 29.40004883 36.11352539 28.07275391 C36.21542631 25.08594772 36.21542631 25.08594772 35 23 C42.92 23 50.84 23 59 23 C59.495 26.465 59.495 26.465 60 30 C60.7425 29.21625 61.485 28.4325 62.25 27.625 C67.26860003 22.83451815 71.09898933 22.54641947 77.8984375 22.6953125 C84.55002654 23.34874316 89.21231004 25.81039441 93.8125 30.625 C101.74617555 40.69892291 102.11649478 51.42809964 100.6796875 63.74609375 C100.26600659 65.91603814 99.72574248 67.91506352 99 70 C98.76667969 70.67160156 98.53335938 71.34320313 98.29296875 72.03515625 C95.48923771 78.67961475 90.01221514 84.08221163 83.515625 87.1875 C81.02314313 87.9925252 78.79145904 88.39180964 76.1875 88.625 C75.00220703 88.73714844 75.00220703 88.73714844 73.79296875 88.8515625 C73.20128906 88.90054688 72.60960937 88.94953125 72 89 C76.62865697 91.52578997 80.66424081 93.5553534 86 94 C87.918125 94.185625 87.918125 94.185625 89.875 94.375 C94.78302215 94.2996369 98.3812684 92.21942329 102 89 C104.02212048 85.88279249 104.02212048 85.88279249 105 83 C105.33 83.99 105.66 84.98 106 86 C104.5625 88.6875 104.5625 88.6875 103 91 C104.98 91.33 106.96 91.66 109 92 C109 92.66 109 93.32 109 94 C108.01 94 107.02 94 106 94 C106 96.64 106 99.28 106 102 C105.34 102 104.68 102 104 102 C104 99.69 104 97.38 104 95 C102.25328412 94.20643199 102.25328412 94.20643199 100 94 C99.28457031 94.47953125 98.56914062 94.9590625 97.83203125 95.453125 C94.30770502 97.37813629 91.29170846 97.49613197 87.375 97.4375 C86.66786865 97.42992676 85.9607373 97.42235352 85.23217773 97.41455078 C74.45523453 97.07926267 68.02130221 93.01420148 59 87 C59 94.92 59 102.84 59 111 C51.74 111 44.48 111 37 111 C37.0309375 106.21048828 37.0309375 106.21048828 37.0625 101.32421875 C37.05526367 98.19964202 37.03437499 95.07543009 37.01220703 91.95092773 C37.0041427 89.79500947 37.01006571 87.63898831 37.03076172 85.4831543 C37.61480506 69.65154492 37.61480506 69.65154492 30.203125 56.35473633 C28 54 28 54 23 46 C22.67 59.86 22.34 73.72 22 88 C14.41 88 6.82 88 -1 88 C-1.33 66.55 -1.66 45.1 -2 23 C2.95 23 7.9 23 13 23 C12.34 21.35 11.68 19.7 11 18 C7.37 17.67 3.74 17.34 0 17 C0 11.39 0 5.78 0 0 Z " fill="#F9F9F9" transform="translate(181,208)"/>
<path d="M0 0 C7.92 0 15.84 0 24 0 C24.33 1.98 24.66 3.96 25 6 C25.928125 5.195625 26.85625 4.39125 27.8125 3.5625 C32.39618433 -0.41002642 36.91900019 -0.41011896 42.796875 -0.33203125 C50.19316419 0.43465726 55.3397635 3.74912884 60 9.4375 C65.11499769 16.31077814 65.3643407 22.96772132 65.375 31.25 C65.39949219 32.23613281 65.42398438 33.22226562 65.44921875 34.23828125 C65.48527735 43.36110752 63.22029896 51.70070959 56.8125 58.4609375 C50.47596899 63.84152633 44.26785719 65.55503067 36.0546875 65.56640625 C33 65 33 65 25 61 C24.67 69.91 24.34 78.82 24 88 C16.74 88 9.48 88 2 88 C1.97494385 85.40527832 1.9498877 82.81055664 1.92407227 80.13720703 C1.8407249 71.57962399 1.75202285 63.02210256 1.66066074 54.46460152 C1.60541475 49.27443724 1.55199207 44.08426734 1.50268555 38.89404297 C1.45506673 33.88844661 1.40272483 28.88292019 1.34705925 23.87740707 C1.32662443 21.96439218 1.30791324 20.05135809 1.29092598 18.13830948 C1.2669069 15.46599619 1.23684898 12.79381579 1.20532227 10.12158203 C1.1995668 9.32460907 1.19381134 8.52763611 1.18788147 7.70651245 C1.21846745 3.7231685 1.21846745 3.7231685 0 0 Z " fill="#FBFBFB" transform="translate(378,231)"/>
<path d="M0 0 C8.58 0 17.16 0 26 0 C26.03738281 4.27324219 26.07476562 8.54648438 26.11328125 12.94921875 C26.15140354 16.36246046 26.19247622 19.77563836 26.2355423 23.18881989 C26.28015377 26.78853728 26.31959892 30.38813959 26.34643555 33.98803711 C26.37249823 37.45715697 26.41292056 40.92584275 26.46318626 44.39469337 C26.48792221 46.35821845 26.49789227 48.32191158 26.50764465 50.28556824 C26.53733589 52.08686943 26.53733589 52.08686943 26.56762695 53.92456055 C26.57873001 54.97935104 26.58983307 56.03414154 26.60127258 57.12089539 C27.07449277 60.53789246 27.84295698 62.30624761 30 65 C31.98 65.99 33.96 66.98 36 68 C36 73.28 36 78.56 36 84 C25.30332678 84.69010795 18.3804237 83.46323779 10.125 76.39453125 C2.2671804 68.12417612 1.40889956 58.09155874 1.42578125 47.1875 C1.40414459 45.21597204 1.3825042 43.24444411 1.36063671 41.2729187 C1.33525106 38.54188291 1.32780597 35.8109068 1.32006836 33.07977295 C1.30254979 28.26569893 1.2558027 23.45181318 1.21000671 18.63793945 C1.18749394 16.08053645 1.17169008 13.52306405 1.16316223 10.96557617 C1.15612778 9.81677979 1.14909332 8.6679834 1.1418457 7.484375 C1.13836624 6.47084961 1.13488678 5.45732422 1.13130188 4.41308594 C1.1598785 1.98812621 1.1598785 1.98812621 0 0 Z " fill="#FAFAFA" transform="translate(292,212)"/>
<path d="M0 0 C8.58 0 17.16 0 26 0 C26.09076364 7.91109876 26.16398016 15.8217853 26.20724869 23.73326683 C26.22802687 27.40782562 26.2561623 31.08200637 26.30175781 34.75634766 C26.34556907 38.30958335 26.36921035 41.86245796 26.37950897 45.41594315 C26.39037784 47.41546807 26.42154635 49.41484993 26.45318604 51.41415405 C26.45547253 60.80256469 25.21383405 68.50677613 19 75.8125 C12.98769952 81.24545675 5.33549981 84.28956241 -2.75 84.3125 C-4.1525 84.209375 -5.555 84.10625 -7 84 C-7 78.39 -7 72.78 -7 67 C-5.02 66.01 -3.04 65.02 -1 64 C1.77637008 60.49089059 2.37523172 57.8681777 2.37231445 53.44702148 C2.37854324 52.35916855 2.38477203 51.27131561 2.39118958 50.15049744 C2.38197983 48.98579422 2.37277008 47.821091 2.36328125 46.62109375 C2.36402901 44.81476219 2.36402901 44.81476219 2.36479187 42.97193909 C2.36245381 40.42927396 2.35274118 37.88660642 2.33618164 35.34399414 C2.31256681 31.44852046 2.31562594 27.55373031 2.32226562 23.65820312 C2.31668949 21.18749591 2.30958002 18.71679159 2.30078125 16.24609375 C2.30169266 15.0793663 2.30260406 13.91263885 2.30354309 12.71055603 C2.29401108 11.62585526 2.28447906 10.54115448 2.2746582 9.42358398 C2.27005081 8.47047836 2.26544342 7.51737274 2.26069641 6.53538513 C2.11373488 3.63849884 2.11373488 3.63849884 0 0 Z " fill="#FEFEFE" transform="translate(338,212)"/>
<path d="M0 0 C0 6.93 0 13.86 0 21 C-2.97 21.33 -5.94 21.66 -9 22 C-12.4292298 23.41642101 -13.65588174 24.44149664 -15.60083008 27.59814453 C-17.22703841 31.55200718 -17.47512545 35.03525539 -17.51171875 39.2421875 C-17.52966995 40.01055939 -17.54762115 40.77893127 -17.56611633 41.57058716 C-17.61994958 44.00533695 -17.65402692 46.4398938 -17.6875 48.875 C-17.72069705 50.53388086 -17.75518891 52.19273635 -17.79101562 53.8515625 C-17.87807993 57.90106525 -17.93837442 61.94971201 -18 66 C-25.59 66 -33.18 66 -41 66 C-41.02505615 64.1020166 -41.0501123 62.2040332 -41.07592773 60.24853516 C-41.15973625 53.9859913 -41.24800587 47.72352284 -41.33933926 41.46108437 C-41.39456444 37.66321358 -41.44798378 33.8653351 -41.49731445 30.06738281 C-41.54496401 26.40392633 -41.597307 22.74056454 -41.65294075 19.07722092 C-41.67336163 17.67777227 -41.69207517 16.27829765 -41.70907402 14.87880325 C-41.73312361 12.92255986 -41.76374122 10.96640051 -41.79467773 9.01025391 C-41.81022202 7.8955069 -41.8257663 6.78075989 -41.84178162 5.63223267 C-41.82581145 3.02109171 -41.82581145 3.02109171 -43 1 C-34.75 1 -26.5 1 -18 1 C-17.67 3.31 -17.34 5.62 -17 8 C-16.5875 7.59007812 -16.175 7.18015625 -15.75 6.7578125 C-10.97078875 2.29863771 -6.7381824 0 0 0 Z " fill="#F9F9F9" transform="translate(171,230)"/>
<path d="M0 0 C7.92 0 15.84 0 24 0 C24 21.12 24 42.24 24 64 C16.41 64 8.82 64 1 64 C0.67 42.88 0.34 21.76 0 0 Z " fill="#F7F7F7" transform="translate(75,232)"/>
<path d="M0 0 C2.80251905 0.33823506 3.77674351 0.71869682 5.5625 2.96875 C9.41499787 9.75249624 13.09920029 16.39680114 15 24 C17.64 24.66 20.28 25.32 23 26 C23 25.34 23 24.68 23 24 C25.375 23.8125 25.375 23.8125 28 24 C28.66 24.99 29.32 25.98 30 27 C33.34512834 27.86752779 36.65142 28.54862369 40.05859375 29.109375 C45.30651268 30.19181868 45.30651268 30.19181868 47.39941406 32.63085938 C48.82242397 35.0506031 50 37.14534026 50 40 C39.64063585 38.82108931 29.31345447 37.53639417 19 36 C19.176521 36.66531738 19.35304199 37.33063477 19.53491211 38.01611328 C20.3385972 41.05166965 21.13808398 44.08831671 21.9375 47.125 C22.21529297 48.17171875 22.49308594 49.2184375 22.77929688 50.296875 C23.18051758 51.82441406 23.18051758 51.82441406 23.58984375 53.3828125 C23.95903931 54.78104248 23.95903931 54.78104248 24.33569336 56.20751953 C25.02953503 59.1241535 25.53950868 62.03833384 26 65 C26.62648437 65.14695312 27.25296875 65.29390625 27.8984375 65.4453125 C30.40717493 66.13383034 32.6700166 66.83713809 35 68 C36.5625 71.1875 36.5625 71.1875 37 74 C33.7 73.67 30.4 73.34 27 73 C26.67 73.66 26.34 74.32 26 75 C25.01 75 24.02 75 23 75 C21.12505436 76.08026513 21.12505436 76.08026513 19.3125 77.5 C18.37857422 78.19609375 18.37857422 78.19609375 17.42578125 78.90625 C16.95527344 79.2671875 16.48476562 79.628125 16 80 C15.54953829 74.25661319 16.44467143 72.3581447 20 68 C19.60983428 64.19316073 18.25073825 60.96053351 16.71484375 57.48046875 C16.26689453 56.45888672 15.81894531 55.43730469 15.35742188 54.38476562 C14.88884766 53.32966797 14.42027344 52.27457031 13.9375 51.1875 C13.46505859 50.11306641 12.99261719 49.03863281 12.50585938 47.93164062 C11.34167464 45.28576624 10.17292168 42.64201005 9 40 C5.61679397 41.55937879 4.1814689 42.9861285 2 46 C0.203125 47.45703125 0.203125 47.45703125 -1.75 48.8125 C-5.41358308 51.45541695 -8.48098971 54.37724941 -11.5546875 57.6796875 C-13 59 -13 59 -15 59 C-15.60168818 55.50872288 -15.71544632 52.48247048 -15 49 C-12.94715835 46.11772738 -10.71393483 43.77290567 -8.1640625 41.32421875 C-5.93223347 38.92721826 -5.17854663 37.00040475 -4 34 C-1.0625 32.875 -1.0625 32.875 2 32 C4.00484776 30.83115894 4.00484776 30.83115894 5 29 C4.27602836 23.96932529 2.72705106 19.04245105 1.37304688 14.14648438 C0.10746332 9.3020345 -0.1738204 5.00714893 0 0 Z " fill="#F6F6F6" transform="translate(160,127)"/>
<path d="M0 0 C21.78 0 43.56 0 66 0 C66 5.94 66 11.88 66 18 C44.22 18 22.44 18 0 18 C0 12.06 0 6.12 0 0 Z " fill="#F2F2F2" transform="translate(54,211)"/>
<path d="M0 0 C2.69105198 2.17574416 4.45532928 3.91065856 6 7 C6.15159403 9.76367582 6.23141393 12.48532157 6.25 15.25 C6.270625 16.00152344 6.29125 16.75304687 6.3125 17.52734375 C6.34681451 22.44289794 5.67119716 25.72089775 3 30 C1 32 1 32 -2.875 32.4375 C-6.36047471 32.36791702 -6.78830525 32.20626668 -9.4375 29.625 C-12.41526664 24.62235204 -12.18347093 20.87044756 -12.1875 15.125 C-12.19974609 14.21363281 -12.21199219 13.30226563 -12.22460938 12.36328125 C-12.22654297 11.48285156 -12.22847656 10.60242188 -12.23046875 9.6953125 C-12.23457764 8.89109863 -12.23868652 8.08688477 -12.24291992 7.25830078 C-11.97165953 4.73653329 -11.3443958 3.14145789 -10 1 C-6.78305636 -0.60847182 -3.47862778 -0.61309149 0 0 Z " fill="#070707" transform="translate(252,248)"/>
<path d="M0 0 C6.00293643 -0.06146351 6.00293643 -0.06146351 8.578125 1.8125 C13.30618158 7.25944238 13.19569885 12.65462858 13.13671875 19.546875 C12.8251026 23.82202989 11.83032697 26.76903355 9.9140625 30.6015625 C6.1934789 33.08195157 4.31609679 33.06493453 -0.0859375 32.6015625 C-2.99310823 30.38293221 -3.92575393 29.08211321 -5.0859375 25.6015625 C-5.33988329 22.12673756 -5.31719834 18.64720315 -5.3359375 15.1640625 C-5.366875 13.73223633 -5.366875 13.73223633 -5.3984375 12.27148438 C-5.40359375 11.35044922 -5.40875 10.42941406 -5.4140625 9.48046875 C-5.4234082 8.6407251 -5.43275391 7.80098145 -5.44238281 6.93579102 C-4.90519157 3.41792424 -3.49653086 1.00836283 0 0 Z " fill="#040404" transform="translate(407.0859375,247.3984375)"/>
<path d="M0 0 C0.33 0.99 0.66 1.98 1 3 C-0.4375 5.6875 -0.4375 5.6875 -2 8 C0.97 8.495 0.97 8.495 4 9 C4 9.66 4 10.32 4 11 C3.01 11 2.02 11 1 11 C1 13.64 1 16.28 1 19 C0.34 19 -0.32 19 -1 19 C-1 16.69 -1 14.38 -1 12 C-3.60582371 11.06934867 -4.64198224 10.85082593 -7.25 11.9375 C-7.8275 12.288125 -8.405 12.63875 -9 13 C-9 12.01 -9 11.02 -9 10 C-7.6078125 9.1028125 -7.6078125 9.1028125 -6.1875 8.1875 C-2.657201 5.76474579 -1.59680539 3.90330207 0 0 Z " fill="#B4B4B4" transform="translate(286,291)"/>
<path d="M0 0 C2.31 0 4.62 0 7 0 C6.979375 1.11375 6.95875 2.2275 6.9375 3.375 C6.73619282 6.83215921 6.73619282 6.83215921 8 9 C5.83125748 8.49396008 4.00032373 8.00016187 2 7 C2 7.66 2 8.32 2 9 C1.34 9 0.68 9 0 9 C0 6.03 0 3.06 0 0 Z " fill="#E0E0E0" transform="translate(300,301)"/>
<path d="M0 0 C3 1 3 1 4.6875 3.9375 C6 7 6 7 6 9 C5.34 9 4.68 9 4 9 C4 8.34 4 7.68 4 7 C2.35 7 0.7 7 -1 7 C-1 7.66 -1 8.32 -1 9 C-1.66 9 -2.32 9 -3 9 C-2.44271087 5.65626525 -1.64826111 2.96687001 0 0 Z " fill="#E5E5E5" transform="translate(320,301)"/>
<path d="M0 0 C0.99 0 1.98 0 3 0 C3 2.64 3 5.28 3 8 C4.32 8 5.64 8 7 8 C7 8.66 7 9.32 7 10 C4.69 10 2.38 10 0 10 C0 6.7 0 3.4 0 0 Z " fill="#B2B2B2" transform="translate(370,300)"/>
<path d="M0 0 C0.66 0 1.32 0 2 0 C3.625 2 3.625 2 5 4 C5.66 3.01 6.32 2.02 7 1 C7.66 1 8.32 1 9 1 C7.88243734 4.86848614 6.97126708 7.28922757 4 10 C3.32845067 8.71086513 2.66291141 7.41859796 2 6.125 C1.62875 5.40570313 1.2575 4.68640625 0.875 3.9453125 C0 2 0 2 0 0 Z " fill="#D3D3D3" transform="translate(335,300)"/>
<path d="M0 0 C1.98 0 3.96 0 6 0 C4.68 0.33 3.36 0.66 2 1 C2 1.99 2 2.98 2 4 C3.32 4.33 4.64 4.66 6 5 C4.68 5 3.36 5 2 5 C2 5.66 2 6.32 2 7 C3.65 7 5.3 7 7 7 C7 7.66 7 8.32 7 9 C4.69 9 2.38 9 0 9 C0 6.03 0 3.06 0 0 Z " fill="#E7E7E7" transform="translate(354,301)"/>
<path d="M0 0 C1.32 0 2.64 0 4 0 C3.67 1.65 3.34 3.3 3 5 C2.34 5 1.68 5 1 5 C1 5.99 1 6.98 1 8 C0.34 8 -0.32 8 -1 8 C-0.67 5.36 -0.34 2.72 0 0 Z " fill="#848484" transform="translate(301,302)"/>
<path d="M0 0 C0.33 0.99 0.66 1.98 1 3 C-1.37705019 7.29697535 -4.03381225 10.13553107 -8 13 C-8.33 12.01 -8.66 11.02 -9 10 C-8.071875 9.46375 -7.14375 8.9275 -6.1875 8.375 C-2.75983521 5.82105369 -1.5962315 3.90189922 0 0 Z " fill="#CDCDCD" transform="translate(286,291)"/>
<path d="M0 0 C0.99 0.33 1.98 0.66 3 1 C3.33 1.99 3.66 2.98 4 4 C3.67 4.66 3.34 5.32 3 6 C2.01 6 1.02 6 0 6 C-1.125 2.25 -1.125 2.25 0 0 Z " fill="#B8B8B8" transform="translate(320,301)"/>
</svg>
